<?xml version="1.0" encoding="utf-8"?>
<!-- Generator: Adobe Illustrator 16.0.0, SVG Export Plug-In . SVG Version: 6.00 Build 0)  -->
<!DOCTYPE svg PUBLIC "-//W3C//DTD SVG 1.1//EN" "http://www.w3.org/Graphics/SVG/1.1/DTD/svg11.dtd" [
	<!ENTITY ns_flows "http://ns.adobe.com/Flows/1.0/">
	<!ENTITY ns_extend "http://ns.adobe.com/Extensibility/1.0/">
	<!ENTITY ns_ai "http://ns.adobe.com/AdobeIllustrator/10.0/">
	<!ENTITY ns_graphs "http://ns.adobe.com/Graphs/1.0/">
]>
<svg version="1.1" id="Capa_1" xmlns:x="&ns_extend;" xmlns:i="&ns_ai;" xmlns:graph="&ns_graphs;"
	 xmlns="http://www.w3.org/2000/svg" xmlns:xlink="http://www.w3.org/1999/xlink" xmlns:a="http://ns.adobe.com/AdobeSVGViewerExtensions/3.0/"
	 x="0px" y="0px" width="164.844px" height="49.219px" viewBox="0 0 164.844 49.219" enable-background="new 0 0 164.844 49.219"
	 xml:space="preserve">
<g opacity="0.95">
	<g>
		<path fill="#FFFFFF" d="M18.593,18.104c-1.035-0.843-2.447-1.993-6.265-1.993c-1.48,0-3.241,0.173-5.233,0.514
			c-0.947,0.163-2.438,0.738-2.503,1.604c0.028,0.183,0.074,0.51,0.121,0.846c0.057,0.406,0.114,0.824,0.141,0.979
			c0.243,1.418,0.65,2.787,1.081,4.235c0.309,1.036,0.628,2.108,0.885,3.21c0.614,2.783,1.025,4.679,1.343,6.145
			c0.885,4.087,1.046,4.833,2.851,12.025c0.83-0.154,2.051-0.604,2.988-0.949c0.527-0.193,0.958-0.35,1.318-0.468l-0.078-0.454
			l-2.255-9.599l-0.219-0.933l0.922-0.259c4.448-1.249,5.43-1.933,5.526-2.007c2.42-1.979,3.227-3.887,2.768-6.571
			C21.556,21.926,20.815,19.893,18.593,18.104z M16.895,27.111c-0.646,1.095-1.818,1.799-3.484,2.095
			c-0.122,0.036-0.34,0.093-0.587,0.093c-0.583,0-1.058-0.324-1.236-0.845l-0.018-0.05l-0.012-0.053
			c-0.156-0.684-0.367-1.463-0.591-2.287c-0.378-1.395-0.769-2.836-0.996-4.168c-0.272-1.584,0.855-1.908,1.207-1.97
			c0.282-0.048,0.583-0.071,0.899-0.071c2.276,0,4.896,1.17,5.268,3.341C17.627,24.84,17.479,26.119,16.895,27.111z"/>
	</g>
	<path fill="#FFFFFF" d="M23.084,38.669c-0.448-3.554,0.912-6.771,4.413-8.528c1.378-0.701,3.839-1.162,4.802-1.282
		c0.443-0.057-0.875-4.553-3.281-4.249c-1.999,0.252-3.052,2.039-4.29,3.248c0,0-1.871-0.86-1.855-1.664
		c0.01-0.514-0.18-1.617,0-1.978c2.098-2.746,3.786-3.408,6.784-3.786c4.96-0.626,6.699,3.329,7.342,7.233l0.042,0.333
		c0.671,3.825,1.171,7.786,1.471,11.659c-0.064,0.384-0.567,1.161-2.903,1.719l-0.148,0.02c-1.369,0.172-0.487-1.479-1.348-1.747
		c-0.504,0.478-0.633,0.943-1.253,1.397c-1.29,1.104-3.163,1.453-4.902,1.673c-2.775,0.35-4.449-1.583-4.84-3.789L23.084,38.669z
		 M33.381,36.541l-0.116-0.924c-0.159-1.259-0.444-3.216-1.073-3.137c-5.662,0.714-4.89,4.753-4.755,5.525
		C27.869,39.644,33.456,37.134,33.381,36.541z"/>
	<path fill="#FFFFFF" d="M37.663,20.88c-0.023-0.298,0.292-0.549,0.59-0.572l3.347-0.269c0.781-0.062,0.692,3.501,0.923,4.044
		c3.467-3.908,6.198-4.39,7.611-4.503c3.198-0.256,5.073,2.588,5.531,5.508l1.753,12.997c0.002,0.037-0.065,0.117-0.104,0.12
		l-3.967,0.468c-0.077-0.031-0.232-0.095-0.235-0.132l-1.484-9.649c-1.978-9.272-9.112-1.627-8.579,5.029
		c0.167,2.083,0.594,4.145,0.761,6.227l0.03,0.371c-1.145,0.205-2.11,0.282-3.264,0.375l-1.041,0.083l-0.244-0.242
		c0,0-0.056-0.221-0.064-0.332L37.663,20.88z"/>
	<path fill="#FFFFFF" d="M69.488,37.467c-2.595,1.205-3.604,1.999-6.435,2.133c-3.316,0.157-5.935-2.296-6.088-5.537
		c-0.048-0.223-0.059-0.446-0.07-0.707c-0.283-5.998,6.053-10.219,11.692-9.402L68.03,8.967c0.024-0.263,0.243-0.385,4.762-0.375
		c0.158,0.18,0.13,0.368,0.139,0.555c0.288,6.11,0.165,12.203,0.452,18.277c0.182,3.839,0.512,7.669,0.696,11.582l0.023,0.482
		c-0.241,0.423-2.697,0.613-3.331,0.644c-0.074,0.004-0.448-0.016-0.561-0.011c-0.341-0.096-0.37-0.729-0.38-0.915
		C69.809,38.722,70.09,37.55,69.488,37.467z M68.821,33.614l-0.043-0.895c-0.094-1.19-0.417-4.871-0.454-4.87
		c-0.337-0.021-0.71-0.004-1.008,0.01c-5.738,0.271-5.688,3.705-5.589,5.791l0.016,0.335C61.87,36.669,67.291,34.434,68.821,33.614z
		"/>
	<path fill="#FFFFFF" d="M74.906,36.265c0,0,0.214-17.137,0.923-17.154c0.149-0.005,0.225,0.03,3.844,0.009
		c0.335-0.01,0.382,0.325,0.387,0.512c0.002,0.074-0.028,0.337-0.027,0.374c-0.008,1.119-0.174,6.05-0.912,17.528
		c-0.024,0.486-0.095,0.637-0.54,0.724c-1.158-0.044-2.269,0.284-3.472-0.02c-0.037,0.001-0.113-0.071-0.114-0.108
		C74.948,37.832,74.913,36.525,74.906,36.265z M75.184,11.737c-0.104-3.879,4.549-5.72,5.703-1.646c0,0,0.05,0.447,0.054,0.596
		c0.045,1.679-0.685,3.713-2.587,3.765c-1.118,0.03-2.662-0.451-3.104-1.633C75.245,12.632,75.188,11.887,75.184,11.737z"/>
	<path fill="#FFFFFF" d="M83.282,6.012c0.111-0.111,0.222-0.188,4.962-0.099c0.045,0.634,0.219,2.535-0.741,15.457l5.153,0.272
		c0.56,0.029,0.714,0.401,0.719,0.774c0.018,1.418-0.199,2.018-0.555,3.439c0.002,0.149-0.222,0.114-0.371,0.117l-5.113-0.086
		c-1.157,5.946-0.58,10.343,5.629,8.586c0.012,0.896,0.215,2.311,0.229,3.394c0.007,0.56-1.224,0.575-1.746,0.581
		c-4.999,0.062-9.787-0.923-8.331-12.807c-0.187,0.002-2.016-0.05-2.165-0.085c-0.074,0.001-0.226-0.11-0.226-0.11l-0.055-4.477
		c0,0,0.147-0.076,0.223-0.077l1.903,0.051L83.282,6.012z"/>
	<path fill="#FFFFFF" d="M93.314,34.115c0.039-3.581,1.824-6.582,5.531-7.848c1.46-0.507,3.961-0.629,4.931-0.618
		c0.447,0.006-0.248-4.628-2.672-4.654c-2.015-0.022-3.301,1.605-4.691,2.635c0,0-2.662-2.192-2.661-2.267
		c0.004-0.374,0.569-0.89,0.797-1.223c2.45-2.436,4.734-3.231,7.756-3.199c4.998,0.055,6.184,4.209,6.289,8.164l-0.003,0.335
		c0.145,3.881,0.101,7.872-0.128,11.749c-0.116,0.372-0.721,1.074-3.11,1.309l-0.149-0.001c-1.38-0.015-0.282-1.533-1.098-1.915
		c-0.564,0.404-0.756,0.851-1.432,1.216c-1.427,0.916-3.33,1.008-5.083,0.988c-2.797-0.031-4.192-2.172-4.279-4.41L93.314,34.115z
		 M103.804,33.409l0.011-0.934c0.014-1.269-0.002-3.245-0.637-3.252c-5.706-0.062-5.489,4.044-5.461,4.827
		C97.923,35.731,103.797,34.005,103.804,33.409z"/>
	<path fill="#FFFFFF" d="M112.554,32.186c0.149,0.006,0.225,0.009,0.369,0.127c1.275,1.623,1.177,3.075,3.675,3.18
		c1.453,0.062,2.998-1.144,3.062-2.672c0.117-2.796-1.653-3.318-4.061-3.793c-2.112-0.388-5.604-2.625-5.505-4.975
		c0.174-4.137,3.831-6.747,7.746-6.582c1.789,0.074,3.797,0.271,4.965,1.814l0.035,0.039c0.213,0.271,0.317,0.46,0.305,0.759
		c-0.002,0.037-0.045,0.185-0.045,0.185c-0.403,0.693-1.891,3.206-2.412,3.186l-0.261-0.011l-0.255-0.16
		c-0.91-0.562-2.329-1.442-3.411-1.487c-0.819-0.035-1.514,0.496-1.55,1.354c-0.124,2.944,9.396,1.216,9.085,8.634
		c-0.187,4.437-3.096,7.898-7.979,7.694c-2.907-0.123-5.751-0.877-6.67-3.903c-0.099-0.303-0.328-1.059-0.3-1.729
		C109.348,33.844,112.106,32.166,112.554,32.186z"/>
</g>
<g opacity="0.95">
	<path fill="#FFFFFF" d="M162.185,24.665l0.002-0.067c0.003-0.102,0.006-0.203,0.006-0.307c0-0.646-0.042-1.309-0.125-1.969
		c-0.021-0.156-0.041-0.302-0.062-0.447c-0.041-0.246-0.08-0.467-0.123-0.68c-0.813-4.248-3.056-8.158-6.323-11.025l-0.028-0.057
		l-0.274-0.216l-0.174-0.123c0.001,0-1.805-1.322-3.771-2.251c0.002-0.053,0.003-0.106,0.003-0.16c0-2.931-2.385-5.315-5.316-5.315
		c-2.33,0-4.334,1.498-5.043,3.627c-3.646,0.02-7.077,1.374-9.745,3.833c-0.776-0.427-1.649-0.655-2.542-0.655
		c-2.932,0-5.316,2.385-5.316,5.316c0,1.449,0.58,2.804,1.589,3.792c-0.852,2.202-1.282,4.523-1.282,6.913
		c0,10.624,8.644,19.267,19.267,19.267s19.266-8.643,19.266-19.267c0-0.066-0.002-0.132-0.004-0.197L162.185,24.665z M150.729,40.03
		c-0.131,0.065-0.262,0.135-0.396,0.197c-0.054,0.025-0.107,0.05-0.158,0.074c-2.207,1.01-4.661,1.576-7.244,1.576
		c-1.062,0-2.098-0.102-3.105-0.282c1.961-2.111,4.298-3.87,6.903-5.17c0.135,0.07,0.277,0.137,0.428,0.199
		c0.761,0.316,1.716,0.518,2.895,0.545c0.551-0.021,1.11-0.08,1.675-0.161c2.636-0.572,4.867-2.099,6.441-4.276
		c-0.615,1.154-1.357,2.23-2.207,3.209C154.502,37.619,152.725,39.014,150.729,40.03z M128.667,11.007
		c1.136,0,2.127,0.599,2.684,1.496c2.268-2.851,5.761-4.678,9.684-4.678c0.632,0,1.252,0.048,1.858,0.14
		c-0.037-0.196-0.06-0.396-0.06-0.603c0-1.748,1.416-3.163,3.164-3.163c1.747,0,3.164,1.415,3.164,3.163
		c0,0.539-0.136,1.048-0.374,1.493c2.178,0.584,5.04,2.666,5.04,2.666v0.001c3.025,2.528,5.172,6.065,5.942,10.09
		c0.039,0.194,0.075,0.389,0.105,0.586c0.021,0.133,0.038,0.264,0.058,0.397c0.067,0.554,0.106,1.119,0.106,1.695
		c0,6.441-4.077,11.349-9.727,11.703c-0.001,0-0.031,0.002-0.078,0.005c-0.02,0.001-0.036,0.001-0.063,0.003
		c-0.046,0.002-0.098,0.002-0.164,0.004c-0.044,0-0.092,0-0.145,0c-0.031-0.001-0.061-0.002-0.095-0.002
		c-0.067-0.002-0.14-0.006-0.217-0.01c-0.037-0.002-0.072-0.004-0.112-0.006c-0.094-0.007-0.193-0.018-0.297-0.029
		c-0.026-0.002-0.05-0.004-0.077-0.008c-0.132-0.016-0.269-0.037-0.41-0.064c-0.027-0.006-0.057-0.014-0.085-0.02
		c-0.111-0.023-0.224-0.049-0.337-0.08c-0.049-0.014-0.096-0.029-0.145-0.045c-0.096-0.029-0.191-0.062-0.286-0.098
		c-0.054-0.021-0.106-0.042-0.159-0.064c-0.092-0.039-0.182-0.084-0.271-0.13c-0.051-0.026-0.101-0.052-0.15-0.081
		c-0.096-0.057-0.188-0.119-0.278-0.186c-0.037-0.027-0.076-0.052-0.112-0.081c-0.123-0.1-0.239-0.208-0.347-0.331
		c-0.016-0.018-0.027-0.039-0.043-0.059c-0.088-0.105-0.169-0.221-0.242-0.345c-0.027-0.048-0.05-0.103-0.075-0.153
		c-0.053-0.105-0.101-0.214-0.141-0.331c-0.022-0.064-0.041-0.132-0.059-0.2c-0.032-0.119-0.056-0.246-0.074-0.377
		c-0.011-0.076-0.021-0.151-0.027-0.231c-0.012-0.147-0.01-0.306-0.004-0.468c0.003-0.076,0-0.148,0.007-0.229
		c0.021-0.248,0.058-0.51,0.12-0.794c0.403-1.819,3.611-3.013,3.618-3.015c0.355-0.13,0.681-0.274,0.98-0.431
		c0.103-0.053,0.186-0.114,0.281-0.17c0.186-0.107,0.375-0.214,0.539-0.33c0.102-0.073,0.186-0.152,0.279-0.229
		c0.135-0.108,0.275-0.215,0.394-0.329c0.089-0.085,0.161-0.175,0.241-0.262c0.103-0.112,0.21-0.223,0.299-0.338
		c0.073-0.094,0.132-0.19,0.196-0.287c0.076-0.113,0.157-0.225,0.223-0.34c0.057-0.1,0.102-0.201,0.15-0.302
		c0.056-0.114,0.115-0.228,0.161-0.342c0.041-0.103,0.073-0.204,0.108-0.306c0.038-0.113,0.078-0.227,0.109-0.338
		c0.027-0.104,0.048-0.204,0.07-0.306c0.023-0.108,0.048-0.218,0.065-0.325c0.016-0.101,0.026-0.198,0.037-0.297
		c0.012-0.104,0.024-0.207,0.031-0.307c0.006-0.096,0.008-0.188,0.01-0.28c0.002-0.096,0.005-0.192,0.003-0.283
		c-0.002-0.088-0.006-0.172-0.011-0.255c-0.005-0.087-0.01-0.174-0.018-0.254c-0.008-0.078-0.017-0.151-0.026-0.223
		c-0.01-0.075-0.02-0.149-0.031-0.217c-0.011-0.065-0.022-0.127-0.035-0.185c-0.012-0.061-0.024-0.12-0.038-0.173
		c-0.012-0.049-0.023-0.094-0.036-0.137c-0.013-0.045-0.025-0.086-0.038-0.122c-0.011-0.032-0.021-0.061-0.032-0.085
		c-0.011-0.025-0.021-0.047-0.03-0.062c-0.009-0.014-0.017-0.024-0.022-0.029c-0.012-0.008-0.022-0.016-0.026,0.004
		c-1.789,8.827-4.856,4.328-14.89,11.271c-5.619-1.168-9.842-6.146-9.842-12.11c0-0.992,0.12-1.955,0.34-2.879
		c-0.111,0.012-0.227,0.021-0.34,0.021c-1.749,0-3.163-1.419-3.163-3.166C125.504,12.423,126.918,11.007,128.667,11.007z
		 M145.435,35.364c-2.788,1.484-5.269,3.471-7.321,5.834c-1.683-0.483-3.261-1.21-4.693-2.144c1.582-2.008,3.411-3.812,5.442-5.368
		c0.742-0.57,1.514-1.106,2.31-1.609c1.46-0.921,3.007-1.717,4.619-2.383C144.594,31.543,144.247,33.812,145.435,35.364z
		 M127.236,18.034c-0.065,0.55-0.104,1.11-0.104,1.68c0,6.321,4.136,11.674,9.848,13.51c-1.774,1.468-3.386,3.124-4.809,4.937
		c-0.37-0.291-0.724-0.602-1.072-0.92c-3.256-3.117-5.289-7.502-5.289-12.366C125.81,22.443,126.321,20.13,127.236,18.034z"/>
	<path fill="#FFFFFF" d="M141.126,25.029c0.219-0.094,0.472,0.003,0.569,0.221c0.041,0.094,0.093,0.178,0.154,0.256
		c0.576-0.59,1.229-2.643,0.956-3.195c-0.348-0.701-1.194-0.987-1.894-0.642c-0.39,0.194-1.541,0.765-1.93,0.958
		c-0.698,0.347-0.982,1.193-0.636,1.894c0.224,0.452,1.628,1.022,2.582,1.161c-0.01-0.028-0.014-0.058-0.025-0.085
		C140.809,25.379,140.908,25.125,141.126,25.029z"/>
	<path fill="#FFFFFF" d="M145.524,23.708c-0.24,0.017-0.418,0.226-0.4,0.461c0.047,0.658-0.438,1.345-1.18,1.672
		c-0.802,0.354-1.674,0.196-2.095-0.335c-0.056,0.057-0.111,0.118-0.165,0.145c-0.154,0.076-0.43,0.078-0.756,0.031
		c0.252,0.717-0.225,1.584-1.111,1.974c-0.747,0.328-1.586,0.22-2.038-0.27c-0.16-0.174-0.433-0.184-0.608-0.023
		c-0.174,0.162-0.186,0.437-0.022,0.612c0.708,0.762,1.92,0.953,3.017,0.47c0.865-0.38,1.455-1.1,1.636-1.875
		c0.696,0.39,1.626,0.441,2.49,0.062c1.088-0.479,1.768-1.491,1.693-2.523C145.967,23.871,145.76,23.691,145.524,23.708z"/>
	<path fill="#FFFFFF" d="M141.685,25.65c0.054-0.026,0.109-0.088,0.165-0.145c-0.062-0.078-0.113-0.162-0.154-0.256
		c-0.098-0.218-0.351-0.314-0.569-0.221c-0.218,0.096-0.317,0.35-0.223,0.567c0.012,0.027,0.016,0.057,0.025,0.085
		C141.255,25.729,141.53,25.727,141.685,25.65z"/>
	<path fill="#FFFFFF" d="M135.985,20.697c-0.062,0-0.112,0.049-0.112,0.112c0,0.007,0.001,0.015,0.003,0.021
		c-0.003,0.033,0.003,0.067,0.003,0.067c0,1.032-0.837,1.867-1.871,1.867c-0.378,0-0.729-0.114-1.023-0.308
		c-0.016-0.014-0.036-0.023-0.053-0.036c-0.011-0.001-0.02-0.006-0.032-0.006c-0.062,0-0.105,0.084-0.105,0.084
		c0,0.04,0.015,0.066,0.049,0.121c0.326,0.546,0.916,0.913,1.597,0.913c1.034,0,1.869-0.838,1.869-1.869
		c0-0.314-0.078-0.61-0.215-0.869C136.061,20.732,136.011,20.697,135.985,20.697z"/>
	<path fill="#FFFFFF" d="M143.859,19.757c1.032,0,1.869-0.839,1.869-1.868c0-0.315-0.079-0.608-0.215-0.869
		c-0.034-0.062-0.083-0.098-0.108-0.098c-0.062,0-0.113,0.049-0.113,0.112c0,0.009,0.004,0.015,0.005,0.023
		c-0.005,0.031,0,0.063,0,0.063c0,1.032-0.837,1.87-1.869,1.87c-0.378,0-0.729-0.115-1.024-0.31
		c-0.018-0.013-0.035-0.022-0.055-0.036c-0.008-0.001-0.019-0.006-0.029-0.006c-0.06,0-0.106,0.084-0.106,0.084
		c0,0.041,0.013,0.067,0.049,0.122C142.59,19.391,143.178,19.757,143.859,19.757z"/>
	<g>
		<path fill="#FFFFFF" d="M129.153,12.545c-1.088,0-1.969,0.854-1.969,1.906c0,0.555,0.249,1.05,0.639,1.398
			c0.352,0.312,0.815,0.508,1.33,0.508c0.054,0,0.104-0.011,0.156-0.015c0.041-0.124,0.101-0.237,0.146-0.36
			c0.298-0.813,0.671-1.587,1.114-2.316c0.063-0.105,0.114-0.219,0.181-0.322c-0.243-0.328-0.594-0.569-0.996-0.696
			C129.563,12.587,129.365,12.545,129.153,12.545z"/>
		<path fill="#FFFFFF" d="M147.826,6.758c-0.354-1.029-1.447-1.584-2.443-1.242c-0.546,0.188-0.932,0.612-1.124,1.122
			c-0.045,0.108-0.083,0.22-0.107,0.336c-0.002,0.012-0.003,0.024-0.005,0.036c-0.019,0.095-0.027,0.194-0.03,0.294
			c-0.001,0.063,0.003,0.126,0.008,0.19c0.004,0.055,0.007,0.109,0.017,0.168c0.019,0.112,0.042,0.224,0.08,0.335
			c0.018,0.051,0.045,0.095,0.064,0.143c1.103-0.012,2.186,0.12,3.236,0.374c0.022,0.006,0.046,0.007,0.068,0.013
			C147.931,8.032,148.04,7.381,147.826,6.758z"/>
	</g>
</g>
</svg>
