<?xml version="1.0" encoding="utf-8"?>
<!-- Generator: Adobe Illustrator 16.0.0, SVG Export Plug-In . SVG Version: 6.00 Build 0)  -->
<!DOCTYPE svg PUBLIC "-//W3C//DTD SVG 1.1//EN" "http://www.w3.org/Graphics/SVG/1.1/DTD/svg11.dtd">
<svg version="1.1" xmlns="http://www.w3.org/2000/svg" xmlns:xlink="http://www.w3.org/1999/xlink" x="0px" y="0px" width="162px"
	 height="43.259px" viewBox="0 0 162 43.259" enable-background="new 0 0 162 43.259" xml:space="preserve">
<g id="Capa_2">
</g>
<g id="Capa_1">
	<g>
		<g>
			<path fill="#FFFFFF" d="M18.179,15.258c-0.999-0.813-2.36-1.923-6.043-1.923c-1.428,0-3.126,0.167-5.048,0.496
				c-0.914,0.157-2.352,0.712-2.415,1.546c0.027,0.176,0.072,0.492,0.117,0.816c0.055,0.392,0.11,0.795,0.136,0.944
				c0.234,1.368,0.627,2.689,1.043,4.086c0.297,1,0.605,2.034,0.854,3.096c0.592,2.685,0.989,4.513,1.295,5.927
				c0.853,3.942,1.009,4.662,2.75,11.601c0.801-0.148,1.979-0.582,2.883-0.916c0.509-0.187,0.924-0.337,1.271-0.451l-0.075-0.438
				l-2.175-9.26l-0.211-0.899l0.889-0.25c4.291-1.204,5.238-1.864,5.331-1.936c2.334-1.909,3.113-3.75,2.67-6.339
				C21.037,18.944,20.323,16.982,18.179,15.258z M16.541,23.946c-0.624,1.056-1.754,1.735-3.361,2.021
				c-0.118,0.034-0.328,0.089-0.566,0.089c-0.562,0-1.02-0.312-1.192-0.814l-0.017-0.048l-0.011-0.051
				c-0.151-0.66-0.354-1.411-0.57-2.207c-0.364-1.345-0.741-2.735-0.96-4.021c-0.263-1.528,0.825-1.841,1.164-1.9
				c0.272-0.046,0.562-0.069,0.868-0.069c2.196,0,4.723,1.128,5.082,3.223C17.247,21.755,17.105,22.989,16.541,23.946z"/>
		</g>
		<path fill="#FFFFFF" d="M22.511,35.095c-0.432-3.428,0.88-6.532,4.257-8.227c1.329-0.676,3.703-1.121,4.632-1.236
			c0.428-0.055-0.844-4.392-3.165-4.099c-1.929,0.243-2.944,1.967-4.139,3.133c0,0-1.805-0.83-1.79-1.605
			c0.009-0.496-0.173-1.56,0-1.908c2.023-2.649,3.652-3.288,6.544-3.652c4.785-0.604,6.462,3.211,7.083,6.978l0.041,0.321
			c0.647,3.69,1.129,7.511,1.418,11.248c-0.062,0.37-0.547,1.12-2.8,1.657l-0.144,0.02c-1.321,0.165-0.47-1.428-1.3-1.686
			c-0.486,0.461-0.61,0.91-1.208,1.348c-1.245,1.064-3.051,1.402-4.729,1.614c-2.677,0.337-4.292-1.527-4.668-3.655L22.511,35.095z
			 M32.444,33.042l-0.112-0.891c-0.153-1.215-0.429-3.103-1.035-3.026c-5.462,0.689-4.717,4.585-4.587,5.33
			C27.127,36.035,32.517,33.614,32.444,33.042z"/>
		<path fill="#FFFFFF" d="M36.575,17.935c-0.023-0.288,0.282-0.53,0.569-0.552l3.229-0.259c0.753-0.059,0.668,3.377,0.89,3.901
			c3.344-3.77,5.979-4.235,7.342-4.344c3.085-0.247,4.894,2.496,5.335,5.313l1.691,12.537c0.001,0.036-0.063,0.113-0.1,0.116
			l-3.827,0.451c-0.074-0.03-0.224-0.091-0.227-0.127l-1.432-9.309c-1.908-8.944-8.791-1.569-8.276,4.852
			c0.161,2.01,0.573,3.998,0.734,6.007l0.029,0.357c-1.104,0.198-2.036,0.272-3.148,0.362l-1.004,0.08l-0.235-0.233
			c0,0-0.054-0.213-0.062-0.32L36.575,17.935z"/>
		<path fill="#FFFFFF" d="M67.275,33.936c-2.503,1.162-3.476,1.928-6.207,2.058c-3.199,0.151-5.725-2.215-5.873-5.342
			c-0.046-0.215-0.056-0.431-0.068-0.682c-0.273-5.786,5.839-9.858,11.279-9.07L65.869,6.443c0.024-0.253,0.235-0.371,4.594-0.362
			c0.152,0.173,0.125,0.355,0.133,0.535c0.278,5.895,0.16,11.772,0.437,17.631c0.175,3.703,0.494,7.398,0.671,11.172l0.023,0.466
			c-0.233,0.407-2.602,0.591-3.213,0.62c-0.072,0.004-0.433-0.015-0.541-0.01c-0.329-0.093-0.357-0.704-0.366-0.883
			C67.584,35.146,67.855,34.016,67.275,33.936z M66.632,30.219l-0.042-0.862c-0.09-1.148-0.402-4.699-0.438-4.698
			c-0.325-0.021-0.685-0.004-0.972,0.009c-5.536,0.262-5.487,3.575-5.391,5.586l0.015,0.323
			C59.926,33.166,65.156,31.01,66.632,30.219z"/>
		<path fill="#FFFFFF" d="M72.502,32.775c0,0,0.206-16.531,0.89-16.547c0.144-0.005,0.216,0.029,3.708,0.008
			c0.323-0.009,0.369,0.313,0.373,0.494c0.002,0.072-0.027,0.325-0.026,0.361c-0.007,1.08-0.167,5.836-0.88,16.908
			c-0.023,0.47-0.091,0.614-0.521,0.698c-1.118-0.042-2.188,0.274-3.349-0.019c-0.036,0.001-0.109-0.068-0.11-0.104
			C72.542,34.288,72.508,33.027,72.502,32.775z M72.769,9.115c-0.101-3.742,4.388-5.517,5.502-1.588c0,0,0.048,0.431,0.052,0.575
			c0.043,1.619-0.661,3.582-2.496,3.631c-1.079,0.029-2.568-0.435-2.994-1.575C72.829,9.979,72.773,9.26,72.769,9.115z"/>
		<path fill="#FFFFFF" d="M80.582,3.592c0.107-0.107,0.214-0.181,4.787-0.095c0.043,0.611,0.211,2.446-0.715,14.911l4.971,0.263
			c0.54,0.028,0.688,0.387,0.693,0.747c0.018,1.368-0.192,1.946-0.535,3.318c0.002,0.145-0.214,0.11-0.357,0.113l-4.933-0.083
			c-1.116,5.736-0.56,9.978,5.43,8.282c0.012,0.864,0.207,2.229,0.221,3.273c0.007,0.54-1.181,0.556-1.685,0.561
			c-4.822,0.061-9.441-0.89-8.037-12.354c-0.18,0.002-1.944-0.048-2.088-0.082c-0.072,0.001-0.218-0.106-0.218-0.106l-0.053-4.318
			c0,0,0.143-0.073,0.215-0.074l1.836,0.049L80.582,3.592z"/>
		<path fill="#FFFFFF" d="M90.259,30.702c0.038-3.454,1.76-6.349,5.336-7.57c1.408-0.489,3.821-0.606,4.757-0.596
			c0.432,0.006-0.239-4.464-2.578-4.49c-1.943-0.021-3.184,1.549-4.525,2.542c0,0-2.567-2.115-2.566-2.187
			c0.003-0.361,0.549-0.858,0.769-1.18c2.363-2.35,4.566-3.117,7.481-3.086c4.821,0.053,5.965,4.06,6.066,7.875l-0.003,0.323
			c0.14,3.743,0.098,7.594-0.123,11.334c-0.112,0.358-0.695,1.036-3,1.263l-0.145-0.001c-1.331-0.015-0.272-1.479-1.059-1.848
			c-0.545,0.39-0.729,0.82-1.381,1.173c-1.377,0.884-3.213,0.972-4.903,0.953c-2.698-0.03-4.045-2.095-4.129-4.254L90.259,30.702z
			 M100.378,30.021l0.01-0.9c0.014-1.225-0.002-3.131-0.614-3.138c-5.504-0.059-5.295,3.901-5.268,4.657
			C94.705,32.262,100.371,30.596,100.378,30.021z"/>
		<path fill="#FFFFFF" d="M108.818,28.841c0.145,0.006,0.217,0.009,0.356,0.122c1.229,1.566,1.135,2.967,3.545,3.067
			c1.401,0.06,2.892-1.103,2.954-2.577c0.113-2.697-1.595-3.201-3.917-3.659c-2.038-0.373-5.405-2.532-5.311-4.798
			c0.168-3.991,3.695-6.509,7.473-6.35c1.726,0.072,3.662,0.262,4.789,1.75l0.034,0.038c0.205,0.261,0.306,0.444,0.294,0.732
			c-0.002,0.036-0.044,0.178-0.044,0.178c-0.389,0.669-1.823,3.093-2.326,3.073l-0.252-0.01l-0.246-0.154
			c-0.878-0.542-2.246-1.392-3.29-1.435c-0.791-0.034-1.461,0.479-1.495,1.306c-0.12,2.84,9.064,1.173,8.764,8.329
			c-0.18,4.279-2.986,7.619-7.697,7.422c-2.805-0.118-5.548-0.846-6.435-3.766c-0.095-0.292-0.316-1.021-0.289-1.668
			C105.726,30.44,108.387,28.822,108.818,28.841z"/>
	</g>
	<g>
		<g>
			<path fill="#D0D2D3" d="M138.115,39.758c-9.908,0-17.97-8.062-17.97-17.97c0-2.372,0.455-4.67,1.353-6.84
				c-1.04-0.85-1.648-2.119-1.648-3.486c0-2.488,2.024-4.512,4.513-4.512c0.905,0,1.789,0.278,2.537,0.79
				c2.478-2.472,5.826-3.856,9.393-3.856l0.345,0.004c0.015-0.001,0.03-0.003,0.045-0.004c0.463-2.027,2.271-3.499,4.397-3.499
				c2.488,0,4.513,2.024,4.513,4.511c0,0.182-0.011,0.362-0.031,0.538c2.006,0.889,3.917,2.284,3.937,2.298l0.277,0.197l0.029,0.057
				c3.1,2.684,5.228,6.366,5.997,10.382c0.038,0.193,0.074,0.398,0.109,0.608l0.06,0.422c0.077,0.615,0.116,1.228,0.116,1.829
				l-0.006,0.339l0.003,0.223C156.083,31.696,148.022,39.758,138.115,39.758z"/>
			<path fill="#D0D2D3" d="M141.079,1c2.148,0,3.896,1.748,3.896,3.895c0,0.309-0.034,0.612-0.107,0.907
				c0.106,0.046,0.217,0.095,0.332,0.146c1.907,0.811,3.847,2.216,3.929,2.277l0.167,0.119l0.016,0.03
				c3.044,2.6,5.132,6.182,5.884,10.108c0.038,0.192,0.073,0.391,0.107,0.594c0.02,0.133,0.038,0.267,0.057,0.403
				c0.074,0.591,0.11,1.175,0.11,1.746c0,0.11-0.003,0.217-0.006,0.326l-0.001,0.039l0.002,0.058
				c0.002,0.046,0.002,0.093,0.002,0.14c0,9.57-7.782,17.354-17.352,17.354s-17.354-7.783-17.354-17.354
				c0-2.457,0.504-4.825,1.497-7.049c-1.101-0.704-1.793-1.93-1.793-3.277c0-2.148,1.747-3.896,3.896-3.896
				c0.947,0,1.854,0.353,2.559,0.969c0.098-0.081,0.194-0.163,0.292-0.242c2.419-2.446,5.642-3.793,9.079-3.793
				c0.109,0,0.219,0.001,0.328,0.004c0.2-0.015,0.395-0.03,0.588-0.041C137.424,2.517,139.078,1,141.079,1 M141.079-0.232
				c-2.247,0-4.18,1.445-4.863,3.499c-3.518,0.019-6.828,1.325-9.401,3.698c-0.749-0.412-1.592-0.631-2.452-0.631
				c-2.828,0-5.129,2.3-5.129,5.128c0,1.398,0.56,2.706,1.533,3.657c-0.821,2.125-1.237,4.364-1.237,6.669
				c0,10.249,8.338,18.586,18.586,18.586c10.247,0,18.584-8.338,18.584-18.586c0-0.064-0.001-0.129-0.004-0.192v-0.009
				c0.004-0.141,0.007-0.249,0.007-0.36c0-0.626-0.041-1.265-0.12-1.899l-0.061-0.429c-0.04-0.241-0.077-0.451-0.117-0.655
				c-0.786-4.104-2.951-7.877-6.106-10.645l-0.028-0.055l-0.26-0.204l-0.167-0.119l0,0c0,0-1.729-1.271-3.638-2.171
				c0.002-0.051,0.003-0.103,0.003-0.154C146.208,2.068,143.907-0.232,141.079-0.232L141.079-0.232z"/>
		</g>
		<path fill="#FFFFFF" d="M154.522,19.59c-0.019-0.129-0.036-0.255-0.056-0.383c-0.029-0.19-0.064-0.377-0.102-0.565
			c-0.743-3.882-2.814-7.294-5.732-9.733V8.907c0,0-2.761-2.008-4.862-2.572c0.23-0.43,0.361-0.92,0.361-1.44
			c0-1.686-1.367-3.051-3.053-3.051s-3.052,1.365-3.052,3.051c0,0.2,0.021,0.392,0.058,0.582c-0.585-0.089-1.184-0.135-1.793-0.135
			c-3.784,0-7.153,1.762-9.341,4.512c-0.537-0.866-1.493-1.443-2.589-1.443c-1.688,0-3.052,1.366-3.052,3.05
			c0,1.686,1.364,3.054,3.052,3.054c0.109,0,0.22-0.008,0.327-0.02c-0.212,0.891-0.327,1.82-0.327,2.777
			c0,5.753,4.073,10.556,9.493,11.683c9.679-6.697,12.638-2.357,14.363-10.872c0.079-0.389,1.874,5.233-3.698,7.271
			c-0.006,0.002-3.101,1.153-3.49,2.908c-1.039,4.696,4.195,4.256,4.212,4.253c5.45-0.342,9.383-5.075,9.383-11.289
			C154.625,20.669,154.588,20.124,154.522,19.59z"/>
		<path fill="#179BD7" d="M140.881,26.438c-1.556,0.643-3.048,1.41-4.456,2.299c-0.768,0.485-1.512,1.002-2.228,1.553
			c-1.96,1.501-3.725,3.241-5.25,5.178c1.382,0.901,2.904,1.602,4.527,2.068c1.979-2.28,4.373-4.196,7.062-5.628
			C139.392,30.409,139.726,28.221,140.881,26.438z"/>
		<path fill="#1B75BB" d="M145.644,36.408c-0.126,0.063-0.252,0.13-0.382,0.19C145.392,36.538,145.518,36.472,145.644,36.408z"/>
		<path fill="#91CBEE" d="M145.262,36.599c-0.052,0.024-0.104,0.048-0.152,0.071C145.158,36.646,145.21,36.623,145.262,36.599z"/>
		<path fill="#EF6EA8" d="M146.605,33.493c-0.545,0.079-1.084,0.136-1.615,0.156c-1.138-0.026-2.059-0.221-2.793-0.526
			c-0.145-0.06-0.282-0.124-0.412-0.191c-2.514,1.254-4.768,2.95-6.659,4.986c0.972,0.175,1.971,0.272,2.995,0.272
			c2.492,0,4.859-0.546,6.988-1.521c0.049-0.023,0.101-0.047,0.152-0.071c0.13-0.061,0.256-0.127,0.382-0.19
			c1.926-0.98,3.641-2.326,5.047-3.944c0.819-0.944,1.535-1.982,2.129-3.096C151.301,31.469,149.148,32.941,146.605,33.493z"/>
		<path fill="#929497" d="M138.001,19.315c-0.335-0.676-1.152-0.953-1.827-0.619c-0.375,0.188-1.486,0.738-1.861,0.924
			c-0.673,0.334-0.947,1.151-0.613,1.827c0.29,0.585,2.635,1.379,3.221,1.09C137.503,22.247,138.29,19.899,138.001,19.315z"/>
		<path fill="#929497" d="M140.623,20.663c-0.231,0.016-0.402,0.218-0.386,0.444c0.045,0.635-0.422,1.297-1.138,1.613
			c-0.887,0.391-1.861,0.136-2.17-0.57c-0.094-0.21-0.338-0.303-0.549-0.213c-0.21,0.092-0.307,0.337-0.215,0.547
			c0.311,0.706-0.159,1.596-1.048,1.986c-0.721,0.316-1.53,0.212-1.966-0.26c-0.154-0.168-0.417-0.177-0.587-0.023
			c-0.168,0.157-0.179,0.421-0.021,0.591c0.683,0.735,1.852,0.919,2.909,0.453c0.835-0.366,1.404-1.06,1.578-1.808
			c0.672,0.375,1.568,0.426,2.402,0.059c1.05-0.461,1.705-1.438,1.634-2.434C141.051,20.82,140.851,20.647,140.623,20.663z"/>
		<path fill="#929497" d="M131.526,17.853c-0.032-0.061-0.08-0.094-0.104-0.094c-0.061,0-0.108,0.047-0.108,0.108
			c0,0.006,0.001,0.014,0.003,0.02c-0.003,0.032,0.003,0.065,0.003,0.065c0,0.996-0.808,1.801-1.806,1.801
			c-0.364,0-0.702-0.11-0.987-0.297c-0.015-0.013-0.034-0.022-0.051-0.035c-0.01-0.001-0.019-0.006-0.03-0.006
			c-0.06,0-0.103,0.081-0.103,0.081c0,0.039,0.015,0.064,0.048,0.117c0.314,0.526,0.883,0.88,1.54,0.88
			c0.997,0,1.803-0.808,1.803-1.803C131.733,18.388,131.658,18.103,131.526,17.853z"/>
		<path fill="#929497" d="M140.613,14.211c-0.033-0.06-0.08-0.094-0.104-0.094c-0.061,0-0.109,0.047-0.109,0.108
			c0,0.008,0.004,0.014,0.005,0.022c-0.005,0.03,0,0.062,0,0.062c0,0.996-0.808,1.804-1.804,1.804c-0.364,0-0.703-0.111-0.987-0.298
			c-0.018-0.012-0.034-0.022-0.054-0.035c-0.007-0.001-0.018-0.005-0.027-0.005c-0.058,0-0.104,0.081-0.104,0.081
			c0,0.04,0.013,0.065,0.048,0.118c0.316,0.525,0.883,0.879,1.541,0.879c0.995,0,1.803-0.809,1.803-1.802
			C140.82,14.745,140.744,14.462,140.613,14.211z"/>
		<path fill="#DAF0FA" d="M132.381,29.842c-5.51-1.771-9.5-6.934-9.5-13.032c0-0.549,0.038-1.09,0.102-1.62
			c-0.883,2.021-1.377,4.253-1.377,6.598c0,4.693,1.962,8.922,5.103,11.929c0.336,0.308,0.677,0.606,1.034,0.888
			C129.114,32.855,130.669,31.258,132.381,29.842z"/>
		<path fill="#F1F1F2" d="M124.981,13.558c0.344-1.03,0.812-1.999,1.39-2.893c-0.345-0.465-0.904-0.771-1.54-0.771
			c-1.05,0-1.899,0.823-1.899,1.839s0.85,1.839,1.899,1.839C124.883,13.572,124.932,13.562,124.981,13.558z"/>
		<path fill="#F1F1F2" d="M139.428,5.646c1.087-0.011,2.155,0.117,3.188,0.373c0.328-0.478,0.434-1.106,0.228-1.707
			c-0.342-0.993-1.396-1.528-2.356-1.198c-0.961,0.331-1.462,1.402-1.121,2.395C139.383,5.558,139.409,5.6,139.428,5.646z"/>
	</g>
</g>
</svg>
