<?xml version="1.0" encoding="utf-8"?>
<!-- Generator: Adobe Illustrator 16.0.0, SVG Export Plug-In . SVG Version: 6.00 Build 0)  -->
<!DOCTYPE svg PUBLIC "-//W3C//DTD SVG 1.1//EN" "http://www.w3.org/Graphics/SVG/1.1/DTD/svg11.dtd">
<svg version="1.1" id="Capa_1" xmlns="http://www.w3.org/2000/svg" xmlns:xlink="http://www.w3.org/1999/xlink" x="0px" y="0px"
	 width="162px" height="34px" viewBox="0 0 162 34" enable-background="new 0 0 162 34" xml:space="preserve">
<g opacity="0.95">
	<g>
		<path fill="#FFFFFF" d="M13.417,11.383c-0.838-0.682-1.98-1.613-5.07-1.613c-1.198,0-2.623,0.14-4.235,0.416
			c-0.767,0.132-1.973,0.597-2.026,1.297c0.023,0.148,0.06,0.413,0.098,0.685c0.046,0.329,0.092,0.667,0.114,0.792
			c0.197,1.147,0.526,2.255,0.875,3.428c0.25,0.839,0.508,1.706,0.716,2.598c0.497,2.252,0.83,3.786,1.086,4.973
			c0.716,3.308,0.846,3.911,2.307,9.731c0.672-0.124,1.66-0.488,2.418-0.769c0.427-0.156,0.775-0.283,1.067-0.379l-0.063-0.366
			l-1.825-7.769l-0.177-0.755l0.746-0.209c3.6-1.011,4.394-1.564,4.473-1.624c1.958-1.602,2.611-3.146,2.24-5.318
			C15.814,14.476,15.215,12.83,13.417,11.383z M12.042,18.672c-0.523,0.887-1.472,1.456-2.82,1.695
			c-0.099,0.029-0.275,0.075-0.475,0.075c-0.472,0-0.856-0.262-1.001-0.684l-0.014-0.04l-0.009-0.043
			c-0.126-0.553-0.297-1.184-0.479-1.851c-0.306-1.128-0.622-2.295-0.806-3.373c-0.221-1.282,0.692-1.544,0.977-1.594
			c0.229-0.039,0.472-0.058,0.728-0.058c1.842,0,3.962,0.946,4.263,2.703C12.635,16.834,12.516,17.869,12.042,18.672z"/>
	</g>
	<path fill="#FFFFFF" d="M17.051,28.025c-0.363-2.876,0.738-5.48,3.571-6.901c1.115-0.567,3.107-0.94,3.886-1.038
		c0.359-0.046-0.708-3.684-2.655-3.438c-1.618,0.204-2.47,1.65-3.472,2.629c0,0-1.515-0.697-1.502-1.347
		c0.008-0.416-0.146-1.309,0-1.601c1.698-2.222,3.064-2.758,5.49-3.064c4.014-0.507,5.421,2.694,5.941,5.854l0.034,0.27
		c0.543,3.096,0.948,6.301,1.19,9.435c-0.052,0.311-0.459,0.94-2.349,1.392l-0.121,0.016c-1.108,0.139-0.394-1.198-1.09-1.414
		c-0.408,0.386-0.512,0.764-1.014,1.131c-1.044,0.893-2.56,1.176-3.967,1.354c-2.246,0.282-3.601-1.282-3.917-3.067L17.051,28.025z
		 M25.384,26.303l-0.094-0.747c-0.128-1.019-0.359-2.603-0.868-2.539c-4.582,0.578-3.957,3.848-3.848,4.473
		C20.924,28.814,25.445,26.783,25.384,26.303z"/>
	<path fill="#FFFFFF" d="M28.849,13.629c-0.019-0.241,0.236-0.444,0.478-0.463l2.708-0.217c0.632-0.05,0.56,2.833,0.747,3.272
		c2.806-3.163,5.016-3.553,6.16-3.644c2.588-0.207,4.105,2.094,4.476,4.458l1.418,10.518c0.002,0.03-0.053,0.095-0.083,0.097
		l-3.21,0.379c-0.062-0.024-0.188-0.077-0.19-0.106l-1.201-7.81c-1.6-7.503-7.375-1.315-6.942,4.07
		c0.135,1.686,0.48,3.354,0.615,5.039l0.024,0.301c-0.926,0.166-1.708,0.229-2.641,0.304l-0.843,0.066l-0.198-0.196
		c0,0-0.045-0.178-0.052-0.268L28.849,13.629z"/>
	<path fill="#FFFFFF" d="M54.604,27.053c-2.1,0.975-2.917,1.617-5.208,1.726c-2.684,0.127-4.803-1.857-4.927-4.48
		c-0.039-0.181-0.047-0.361-0.057-0.572c-0.229-4.854,4.898-8.27,9.462-7.609L53.424,3.988c0.02-0.212,0.197-0.311,3.854-0.303
		c0.128,0.146,0.105,0.298,0.112,0.449c0.233,4.945,0.133,9.875,0.366,14.791c0.147,3.106,0.414,6.207,0.563,9.373l0.019,0.391
		c-0.195,0.343-2.183,0.496-2.696,0.521c-0.06,0.004-0.362-0.012-0.454-0.008c-0.276-0.078-0.299-0.591-0.307-0.74
		C54.863,28.067,55.091,27.119,54.604,27.053z M54.064,23.935l-0.035-0.724c-0.076-0.963-0.337-3.942-0.367-3.941
		c-0.272-0.017-0.574-0.003-0.815,0.008c-4.644,0.22-4.604,2.998-4.523,4.688l0.013,0.271
		C48.439,26.407,52.826,24.598,54.064,23.935z"/>
	<path fill="#FFFFFF" d="M58.989,26.08c0,0,0.173-13.868,0.747-13.883c0.121-0.003,0.182,0.025,3.111,0.007
		c0.271-0.008,0.309,0.264,0.313,0.415c0.001,0.06-0.023,0.272-0.022,0.303c-0.006,0.905-0.141,4.895-0.738,14.185
		c-0.02,0.394-0.077,0.516-0.437,0.585c-0.938-0.035-1.836,0.23-2.81-0.016c-0.03,0.001-0.092-0.058-0.093-0.088
		C59.023,27.348,58.994,26.291,58.989,26.08z M59.213,6.23c-0.084-3.139,3.681-4.628,4.615-1.332c0,0,0.04,0.361,0.043,0.482
		c0.036,1.358-0.554,3.005-2.093,3.047c-0.905,0.024-2.154-0.366-2.512-1.322C59.263,6.955,59.216,6.352,59.213,6.23z"/>
	<path fill="#FFFFFF" d="M65.767,1.597c0.09-0.09,0.179-0.152,4.016-0.08c0.036,0.513,0.177,2.052-0.6,12.508l4.171,0.221
		c0.453,0.024,0.578,0.325,0.581,0.626c0.015,1.147-0.161,1.633-0.449,2.783c0.002,0.121-0.179,0.093-0.3,0.095l-4.138-0.068
		c-0.937,4.812-0.47,8.369,4.555,6.947c0.01,0.725,0.174,1.87,0.186,2.747c0.005,0.452-0.991,0.465-1.413,0.47
		c-4.046,0.051-7.92-0.747-6.742-10.363c-0.151,0.001-1.631-0.041-1.752-0.069c-0.061,0.001-0.183-0.09-0.183-0.09l-0.044-3.622
		c0,0,0.119-0.062,0.18-0.062l1.541,0.041L65.767,1.597z"/>
	<path fill="#FFFFFF" d="M73.886,24.341c0.031-2.899,1.476-5.327,4.476-6.352c1.181-0.41,3.206-0.509,3.99-0.5
		c0.361,0.005-0.202-3.745-2.163-3.767c-1.63-0.019-2.67,1.299-3.796,2.132c0,0-2.154-1.774-2.153-1.834
		c0.003-0.303,0.461-0.72,0.645-0.99c1.983-1.971,3.831-2.615,6.276-2.589c4.045,0.044,5.004,3.406,5.09,6.607l-0.002,0.271
		c0.117,3.141,0.081,6.37-0.104,9.508c-0.094,0.302-0.583,0.869-2.517,1.06l-0.121-0.001c-1.117-0.013-0.229-1.241-0.889-1.551
		c-0.456,0.327-0.611,0.688-1.158,0.985c-1.154,0.741-2.695,0.815-4.113,0.799c-2.264-0.025-3.393-1.758-3.463-3.568L73.886,24.341z
		 M82.374,23.77l0.009-0.756c0.011-1.026-0.002-2.626-0.516-2.632c-4.618-0.05-4.442,3.272-4.419,3.906
		C77.615,25.648,82.369,24.251,82.374,23.77z"/>
	<path fill="#FFFFFF" d="M89.456,22.778c0.12,0.005,0.181,0.008,0.298,0.104c1.032,1.312,0.953,2.487,2.974,2.573
		c1.176,0.049,2.427-0.926,2.479-2.163c0.095-2.263-1.339-2.686-3.286-3.069c-1.71-0.313-4.535-2.124-4.455-4.025
		c0.14-3.348,3.1-5.46,6.268-5.327c1.448,0.06,3.073,0.22,4.019,1.468l0.028,0.032c0.173,0.219,0.258,0.372,0.247,0.614
		c-0.002,0.03-0.037,0.149-0.037,0.149c-0.326,0.561-1.529,2.595-1.951,2.578l-0.212-0.009l-0.206-0.13
		c-0.736-0.454-1.885-1.167-2.761-1.204c-0.663-0.028-1.225,0.402-1.254,1.096c-0.1,2.383,7.604,0.984,7.353,6.987
		c-0.151,3.591-2.506,6.392-6.458,6.227c-2.353-0.1-4.653-0.71-5.397-3.159c-0.08-0.245-0.266-0.855-0.242-1.399
		C86.861,24.12,89.094,22.763,89.456,22.778z"/>
</g>
<g opacity="0.95">
	<path fill="#FFFFFF" d="M109.222,23.619c-4.621-1.486-7.969-5.818-7.969-10.933c0-0.461,0.031-0.915,0.085-1.359
		c-0.74,1.696-1.155,3.568-1.155,5.535c0,3.936,1.646,7.485,4.28,10.007c0.282,0.258,0.568,0.51,0.868,0.744
		C106.482,26.146,107.786,24.807,109.222,23.619z"/>
	<path fill="#FFFFFF" d="M121.155,26.682c-0.457,0.066-0.909,0.114-1.354,0.13c-0.954-0.021-1.727-0.185-2.343-0.439
		c-0.121-0.052-0.236-0.105-0.347-0.162c-2.108,1.053-3.999,2.476-5.586,4.185c0.815,0.146,1.653,0.229,2.513,0.229
		c2.091,0,4.077-0.459,5.862-1.276c0.041-0.02,0.085-0.039,0.129-0.06c0.107-0.051,0.213-0.106,0.319-0.16
		c1.616-0.822,3.054-1.951,4.234-3.309c0.687-0.792,1.288-1.663,1.786-2.597C125.095,24.983,123.289,26.219,121.155,26.682z"/>
	<path fill="#FFFFFF" d="M116.353,20.763c-1.305,0.539-2.556,1.184-3.738,1.929c-0.644,0.406-1.268,0.84-1.868,1.302
		c-1.645,1.261-3.125,2.72-4.404,4.345c1.159,0.755,2.437,1.343,3.798,1.734c1.661-1.913,3.668-3.521,5.926-4.722
		C115.104,24.095,115.384,22.258,116.353,20.763z"/>
	<path fill="#FFFFFF" d="M102.496,10.761c0.091,0,0.185-0.007,0.274-0.017c-0.179,0.748-0.274,1.527-0.274,2.33
		c0,4.827,3.417,8.856,7.964,9.8c8.119-5.618,10.602-1.978,12.05-9.121c0.003-0.016,0.012-0.009,0.021-0.003
		c0.005,0.004,0.011,0.013,0.018,0.024c0.008,0.013,0.016,0.028,0.025,0.051c0.008,0.02,0.017,0.042,0.025,0.068
		c0.011,0.029,0.021,0.063,0.031,0.099c0.01,0.035,0.02,0.07,0.029,0.11c0.01,0.044,0.021,0.09,0.03,0.14
		c0.011,0.048,0.019,0.096,0.028,0.149c0.01,0.055,0.018,0.114,0.026,0.175c0.007,0.059,0.015,0.116,0.021,0.18
		c0.006,0.066,0.011,0.134,0.015,0.206c0.003,0.067,0.006,0.135,0.008,0.207c0.002,0.073-0.001,0.151-0.002,0.229
		c-0.002,0.075-0.003,0.148-0.008,0.227c-0.006,0.081-0.016,0.165-0.025,0.249c-0.008,0.08-0.018,0.158-0.029,0.24
		c-0.016,0.087-0.035,0.175-0.054,0.264c-0.019,0.083-0.035,0.163-0.058,0.247c-0.024,0.09-0.058,0.182-0.088,0.273
		c-0.028,0.082-0.054,0.164-0.087,0.247c-0.038,0.093-0.086,0.185-0.131,0.277c-0.039,0.081-0.076,0.163-0.122,0.244
		c-0.053,0.093-0.119,0.183-0.18,0.274c-0.053,0.078-0.1,0.156-0.159,0.232c-0.072,0.093-0.159,0.184-0.241,0.273
		c-0.065,0.07-0.124,0.143-0.196,0.213c-0.095,0.092-0.209,0.178-0.317,0.266c-0.076,0.062-0.145,0.126-0.227,0.185
		c-0.133,0.095-0.286,0.18-0.436,0.268c-0.078,0.044-0.146,0.095-0.229,0.138c-0.243,0.126-0.506,0.243-0.794,0.348
		c-0.005,0.002-2.602,0.968-2.927,2.44c-0.052,0.229-0.08,0.441-0.098,0.643c-0.006,0.064-0.004,0.123-0.006,0.185
		c-0.005,0.131-0.007,0.259,0.003,0.379c0.005,0.064,0.014,0.125,0.022,0.187c0.015,0.106,0.034,0.209,0.061,0.306
		c0.014,0.055,0.028,0.109,0.047,0.162c0.032,0.095,0.07,0.184,0.113,0.268c0.021,0.041,0.039,0.085,0.062,0.124
		c0.06,0.101,0.124,0.194,0.196,0.278c0.013,0.017,0.021,0.033,0.034,0.049c0.087,0.099,0.181,0.187,0.28,0.268
		c0.029,0.023,0.062,0.043,0.091,0.065c0.073,0.053,0.147,0.104,0.226,0.149c0.039,0.024,0.081,0.045,0.122,0.066
		c0.071,0.037,0.145,0.073,0.219,0.104c0.042,0.019,0.085,0.035,0.129,0.052c0.077,0.03,0.153,0.057,0.231,0.079
		c0.038,0.014,0.078,0.026,0.116,0.036c0.092,0.026,0.184,0.047,0.273,0.065c0.023,0.005,0.046,0.011,0.068,0.016
		c0.114,0.022,0.226,0.04,0.332,0.052c0.021,0.004,0.042,0.006,0.062,0.007c0.084,0.01,0.165,0.019,0.24,0.024
		c0.031,0.002,0.062,0.003,0.091,0.005c0.062,0.002,0.122,0.006,0.176,0.007c0.026,0,0.052,0.001,0.077,0.002
		c0.02,0,0.042,0.001,0.061,0.001c0.023,0,0.035-0.001,0.057-0.001c0.05-0.002,0.096-0.002,0.133-0.003
		c0.016-0.001,0.037-0.002,0.051-0.003c0.031-0.002,0.062-0.003,0.062-0.003c4.572-0.287,7.872-4.259,7.872-9.472
		c0-0.466-0.032-0.923-0.087-1.372c-0.016-0.108-0.029-0.214-0.046-0.322c-0.024-0.16-0.054-0.317-0.086-0.474
		c-0.603-3.151-2.255-5.926-4.579-7.957c-0.064-0.058-0.126-0.118-0.193-0.176c-0.014-0.01-0.023-0.022-0.036-0.033V6.056
		c0,0-0.021-0.016-0.054-0.038c-0.769-0.641-1.743-1.215-2.87-1.688c-0.393-0.179-0.786-0.333-1.154-0.432
		c0.191-0.36,0.303-0.772,0.303-1.208c0-1.415-1.147-2.56-2.561-2.56c-1.415,0-2.562,1.145-2.562,2.56
		c0,0.123,0.019,0.24,0.036,0.357c-0.675-0.025-1.325-0.012-1.942,0.043c-2.989,0.134-5.639,1.563-7.386,3.76
		c-0.45-0.727-1.253-1.211-2.171-1.211c-1.416,0-2.561,1.146-2.561,2.56C99.936,9.612,101.08,10.761,102.496,10.761z M115.021,2.405
		c0.002-0.01,0.003-0.02,0.005-0.029c0.017-0.095,0.053-0.183,0.087-0.272c0.23-0.551,0.772-0.939,1.407-0.939
		c0.841,0,1.526,0.685,1.526,1.526c0,0.254-0.062,0.498-0.18,0.721l-0.102,0.19c-0.626-0.161-1.28-0.293-1.956-0.391
		c-0.253-0.036-0.5-0.061-0.746-0.086c-0.018-0.063-0.036-0.126-0.046-0.191c-0.008-0.048-0.011-0.092-0.014-0.136
		c-0.004-0.052-0.007-0.103-0.006-0.153C115,2.562,115.007,2.482,115.021,2.405z M113.543,11.816c0.01,0,0.018,0.004,0.024,0.005
		c0.016,0.011,0.03,0.019,0.044,0.029c0.238,0.157,0.523,0.25,0.829,0.25c0.835,0,1.513-0.678,1.513-1.513c0,0-0.004-0.026,0-0.051
		c-0.001-0.007-0.004-0.012-0.004-0.019c0-0.051,0.041-0.091,0.092-0.091c0.021,0,0.061,0.029,0.088,0.079
		c0.109,0.211,0.174,0.448,0.174,0.704c0,0.833-0.677,1.512-1.513,1.512c-0.552,0-1.027-0.296-1.293-0.737
		c-0.029-0.044-0.039-0.065-0.039-0.099C113.458,11.884,113.495,11.816,113.543,11.816z M109.377,18.876
		c0.142-0.13,0.363-0.122,0.492,0.019c0.366,0.396,1.045,0.483,1.649,0.218c0.718-0.315,1.104-1.017,0.9-1.597
		c-0.773-0.112-1.909-0.574-2.09-0.94c-0.28-0.567-0.052-1.252,0.515-1.533c0.313-0.156,1.246-0.618,1.561-0.775
		c0.566-0.28,1.252-0.048,1.533,0.519c0.221,0.447-0.308,2.108-0.774,2.586c0.341,0.43,1.047,0.557,1.695,0.271
		c0.601-0.266,0.993-0.82,0.955-1.354c-0.014-0.19,0.13-0.359,0.324-0.373c0.19-0.014,0.357,0.132,0.372,0.323
		c0.06,0.835-0.49,1.654-1.371,2.042c-0.699,0.308-1.451,0.266-2.015-0.05c-0.146,0.627-0.624,1.211-1.324,1.519
		c-0.887,0.391-1.867,0.235-2.44-0.381C109.228,19.229,109.236,19.007,109.377,18.876z M105.92,14.872
		c0.011,0,0.018,0.004,0.026,0.005c0.014,0.01,0.03,0.018,0.043,0.029c0.238,0.156,0.522,0.249,0.828,0.249
		c0.837,0,1.514-0.675,1.514-1.511c0,0-0.005-0.027-0.002-0.055c-0.002-0.004-0.003-0.011-0.003-0.017
		c0-0.051,0.041-0.091,0.092-0.091c0.02,0,0.061,0.029,0.088,0.079c0.11,0.209,0.174,0.449,0.174,0.703
		c0,0.834-0.677,1.513-1.514,1.513c-0.551,0-1.027-0.297-1.291-0.739c-0.028-0.044-0.04-0.065-0.04-0.098
		C105.835,14.939,105.871,14.872,105.92,14.872z M102.889,6.884c0.172,0,0.332,0.035,0.486,0.083
		c0.16,0.116,0.306,0.253,0.413,0.428l0.247,0.397c-0.359,0.59-0.661,1.217-0.902,1.875l-0.471,0.051
		c-0.055,0.004-0.111,0.01-0.166,0.01c-0.247,0-0.478-0.064-0.684-0.168c-0.315-0.282-0.517-0.683-0.517-1.131
		C101.296,7.575,102.008,6.884,102.889,6.884z"/>
</g>
</svg>
