<?xml version="1.0" encoding="utf-8"?>
<!-- Generator: Adobe Illustrator 16.0.0, SVG Export Plug-In . SVG Version: 6.00 Build 0)  -->
<!DOCTYPE svg PUBLIC "-//W3C//DTD SVG 1.1//EN" "http://www.w3.org/Graphics/SVG/1.1/DTD/svg11.dtd">
<svg version="1.1" id="Capa_1" xmlns="http://www.w3.org/2000/svg" xmlns:xlink="http://www.w3.org/1999/xlink" x="0px" y="0px"
	 width="162px" height="43.259px" viewBox="0 0 162 43.259" enable-background="new 0 0 162 43.259" xml:space="preserve">
<g opacity="0.95">
	<g>
		<path fill="#FFFFFF" d="M16.27,15.026c-1.049-0.854-2.479-2.019-6.347-2.019c-1.5,0-3.283,0.175-5.301,0.52
			c-0.96,0.165-2.47,0.748-2.536,1.624c0.029,0.186,0.075,0.517,0.123,0.857C2.266,16.42,2.324,16.843,2.351,17
			c0.247,1.436,0.659,2.823,1.095,4.291c0.313,1.05,0.636,2.136,0.897,3.252c0.622,2.818,1.039,4.739,1.36,6.225
			c0.896,4.141,1.059,4.896,2.887,12.182c0.842-0.155,2.078-0.611,3.027-0.962c0.534-0.195,0.971-0.354,1.335-0.475l-0.079-0.458
			l-2.284-9.725l-0.221-0.945l0.933-0.262c4.507-1.265,5.5-1.958,5.599-2.032c2.451-2.005,3.268-3.938,2.804-6.657
			C19.271,18.896,18.521,16.837,16.27,15.026z M14.549,24.149c-0.655,1.11-1.842,1.823-3.53,2.122
			c-0.124,0.037-0.344,0.095-0.594,0.095c-0.59,0-1.071-0.328-1.253-0.856l-0.018-0.05l-0.012-0.054
			c-0.158-0.692-0.372-1.482-0.599-2.316c-0.383-1.413-0.778-2.873-1.008-4.223c-0.276-1.604,0.866-1.933,1.222-1.995
			C9.043,16.823,9.349,16.8,9.669,16.8c2.305,0,4.959,1.185,5.336,3.384C15.291,21.849,15.142,23.145,14.549,24.149z"/>
	</g>
	<path fill="#FFFFFF" d="M20.819,35.858c-0.455-3.601,0.923-6.86,4.47-8.64c1.396-0.71,3.889-1.177,4.865-1.299
		c0.449-0.057-0.887-4.611-3.324-4.304c-2.025,0.256-3.092,2.066-4.346,3.291c0,0-1.896-0.873-1.88-1.686
		c0.01-0.521-0.182-1.639,0-2.003c2.125-2.782,3.835-3.453,6.873-3.835c5.024-0.634,6.787,3.373,7.438,7.328l0.042,0.337
		c0.68,3.875,1.187,7.887,1.49,11.81c-0.065,0.389-0.575,1.178-2.94,1.742l-0.151,0.02c-1.387,0.174-0.493-1.5-1.365-1.77
		c-0.511,0.482-0.642,0.955-1.27,1.415c-1.307,1.117-3.204,1.472-4.966,1.695c-2.812,0.354-4.507-1.604-4.903-3.839L20.819,35.858z
		 M31.25,33.702l-0.118-0.936c-0.161-1.275-0.45-3.258-1.087-3.179c-5.735,0.724-4.953,4.816-4.817,5.599
		C25.667,36.846,31.326,34.303,31.25,33.702z"/>
	<path fill="#FFFFFF" d="M35.588,17.837c-0.024-0.301,0.295-0.556,0.598-0.58l3.39-0.272c0.792-0.063,0.701,3.546,0.935,4.097
		c3.512-3.959,6.279-4.447,7.711-4.562c3.24-0.259,5.139,2.621,5.603,5.58L55.6,35.267c0.002,0.038-0.066,0.118-0.104,0.121
		l-4.019,0.474c-0.079-0.03-0.235-0.097-0.239-0.133l-1.503-9.776c-2.003-9.392-9.231-1.646-8.69,5.095
		c0.169,2.109,0.601,4.199,0.77,6.308l0.031,0.377c-1.159,0.207-2.138,0.286-3.306,0.38l-1.055,0.083l-0.248-0.246
		c0,0-0.056-0.222-0.065-0.335L35.588,17.837z"/>
	<path fill="#FFFFFF" d="M67.828,34.641c-2.629,1.22-3.651,2.024-6.519,2.16c-3.36,0.159-6.012-2.325-6.167-5.608
		c-0.048-0.227-0.06-0.453-0.071-0.717c-0.287-6.077,6.132-10.352,11.845-9.525L66.351,5.769c0.024-0.266,0.246-0.389,4.824-0.379
		c0.161,0.182,0.131,0.373,0.141,0.562c0.292,6.19,0.167,12.362,0.458,18.515c0.184,3.888,0.519,7.77,0.706,11.733l0.024,0.489
		c-0.245,0.429-2.733,0.621-3.375,0.651c-0.075,0.005-0.454-0.015-0.568-0.01c-0.346-0.098-0.375-0.74-0.385-0.927
		C68.152,35.91,68.437,34.724,67.828,34.641z M67.152,30.737l-0.044-0.906c-0.095-1.205-0.422-4.935-0.46-4.934
		c-0.341-0.021-0.719-0.003-1.021,0.01c-5.813,0.275-5.763,3.753-5.662,5.868l0.016,0.338C60.11,33.832,65.602,31.567,67.152,30.737
		z"/>
	<path fill="#FFFFFF" d="M73.316,33.423c0,0,0.216-17.36,0.935-17.378c0.152-0.004,0.228,0.031,3.894,0.008
		c0.339-0.01,0.387,0.33,0.392,0.519c0.001,0.074-0.029,0.341-0.028,0.379c-0.007,1.133-0.176,6.127-0.923,17.757
		c-0.025,0.492-0.096,0.646-0.547,0.732c-1.173-0.045-2.298,0.288-3.517-0.02c-0.037,0.001-0.115-0.072-0.116-0.11
		C73.359,35.01,73.323,33.687,73.316,33.423z M73.597,8.576c-0.106-3.929,4.608-5.794,5.777-1.667c0,0,0.05,0.452,0.054,0.603
		c0.045,1.701-0.694,3.762-2.62,3.814c-1.133,0.03-2.697-0.458-3.145-1.654C73.66,9.482,73.601,8.727,73.597,8.576z"/>
	<path fill="#FFFFFF" d="M81.801,2.775c0.113-0.112,0.225-0.19,5.027-0.1c0.045,0.642,0.221,2.568-0.752,15.658l5.222,0.276
		c0.566,0.03,0.723,0.407,0.727,0.784c0.019,1.437-0.201,2.044-0.562,3.484c0.003,0.152-0.224,0.116-0.376,0.119l-5.179-0.085
		c-1.174,6.023-0.589,10.477,5.701,8.696c0.012,0.907,0.218,2.341,0.232,3.438c0.006,0.566-1.24,0.582-1.77,0.589
		c-5.064,0.063-9.914-0.936-8.439-12.973c-0.189,0.001-2.042-0.051-2.193-0.086c-0.076,0.001-0.229-0.113-0.229-0.113l-0.055-4.534
		c0,0,0.149-0.077,0.226-0.079l1.928,0.051L81.801,2.775z"/>
	<path fill="#FFFFFF" d="M91.965,31.246c0.039-3.63,1.848-6.669,5.603-7.951c1.478-0.513,4.013-0.637,4.995-0.626
		c0.452,0.006-0.253-4.688-2.708-4.715c-2.04-0.023-3.343,1.626-4.752,2.669c0,0-2.697-2.221-2.695-2.296
		c0.004-0.379,0.576-0.901,0.807-1.239c2.482-2.467,4.796-3.273,7.857-3.241c5.063,0.056,6.264,4.264,6.371,8.271l-0.003,0.34
		c0.147,3.931,0.102,7.974-0.13,11.902c-0.118,0.378-0.73,1.088-3.15,1.326l-0.152-0.001c-1.398-0.016-0.285-1.554-1.112-1.941
		c-0.57,0.409-0.765,0.862-1.449,1.233c-1.445,0.928-3.374,1.021-5.149,1c-2.833-0.031-4.247-2.2-4.335-4.467L91.965,31.246z
		 M102.589,30.53l0.012-0.945c0.015-1.285-0.002-3.288-0.646-3.295c-5.78-0.062-5.56,4.097-5.532,4.89
		C96.632,32.883,102.582,31.134,102.589,30.53z"/>
	<path fill="#FFFFFF" d="M111.454,29.29c0.15,0.006,0.227,0.01,0.373,0.129c1.292,1.644,1.193,3.114,3.723,3.222
		c1.472,0.062,3.037-1.159,3.104-2.708c0.118-2.832-1.676-3.361-4.113-3.842c-2.141-0.393-5.677-2.659-5.577-5.039
		c0.175-4.191,3.88-6.835,7.846-6.668c1.813,0.075,3.847,0.275,5.03,1.838l0.036,0.04c0.216,0.274,0.322,0.466,0.309,0.768
		c-0.002,0.038-0.046,0.187-0.046,0.187c-0.408,0.703-1.915,3.248-2.442,3.228l-0.266-0.011l-0.258-0.163
		c-0.922-0.568-2.359-1.46-3.456-1.506c-0.83-0.036-1.533,0.503-1.569,1.372c-0.125,2.983,9.519,1.231,9.203,8.746
		c-0.189,4.495-3.137,8.001-8.084,7.794c-2.944-0.125-5.824-0.889-6.756-3.954c-0.101-0.308-0.333-1.071-0.304-1.752
		C108.206,30.97,111.001,29.271,111.454,29.29z"/>
</g>
<g opacity="0.95">
	<path fill="#FFFFFF" d="M136.196,30.343c-5.784-1.861-9.975-7.284-9.975-13.687c0-0.577,0.039-1.145,0.106-1.701
		c-0.927,2.123-1.446,4.466-1.446,6.929c0,4.927,2.06,9.369,5.357,12.527c0.354,0.322,0.712,0.638,1.087,0.931
		C132.768,33.506,134.399,31.829,136.196,30.343z"/>
	<path fill="#FFFFFF" d="M151.135,34.176c-0.572,0.083-1.138,0.144-1.695,0.163c-1.194-0.026-2.161-0.231-2.933-0.551
		c-0.151-0.064-0.296-0.132-0.434-0.202c-2.64,1.317-5.007,3.099-6.993,5.237c1.021,0.183,2.07,0.286,3.146,0.286
		c2.617,0,5.104-0.574,7.339-1.598c0.051-0.024,0.106-0.049,0.161-0.074c0.135-0.063,0.267-0.134,0.399-0.2
		c2.023-1.029,3.823-2.442,5.301-4.142c0.859-0.992,1.612-2.082,2.236-3.251C156.066,32.05,153.806,33.597,151.135,34.176z"/>
	<path fill="#FFFFFF" d="M145.123,26.767c-1.633,0.675-3.199,1.481-4.68,2.414c-0.806,0.509-1.587,1.052-2.339,1.63
		c-2.059,1.578-3.911,3.404-5.513,5.438c1.451,0.945,3.05,1.681,4.754,2.171c2.079-2.395,4.592-4.406,7.418-5.91
		C143.56,30.938,143.91,28.639,145.123,26.767z"/>
	<path fill="#FFFFFF" d="M127.777,14.247c0.114,0,0.231-0.009,0.344-0.021c-0.224,0.937-0.344,1.911-0.344,2.917
		c0,6.042,4.277,11.086,9.97,12.268c10.163-7.032,13.271-2.475,15.083-11.417c0.004-0.02,0.015-0.012,0.027-0.004
		c0.006,0.005,0.014,0.016,0.021,0.03c0.01,0.016,0.02,0.035,0.032,0.063c0.01,0.025,0.021,0.052,0.032,0.085
		c0.013,0.037,0.025,0.079,0.039,0.124c0.012,0.043,0.024,0.087,0.036,0.138c0.013,0.055,0.026,0.113,0.038,0.175
		c0.014,0.061,0.023,0.12,0.035,0.187c0.013,0.069,0.022,0.143,0.033,0.22c0.009,0.073,0.019,0.146,0.025,0.226
		c0.008,0.082,0.014,0.168,0.019,0.257c0.004,0.084,0.008,0.168,0.01,0.258c0.003,0.092-0.001,0.189-0.002,0.287
		c-0.003,0.094-0.004,0.186-0.01,0.284c-0.008,0.101-0.02,0.206-0.032,0.311c-0.01,0.1-0.021,0.197-0.036,0.3
		c-0.02,0.109-0.044,0.219-0.067,0.33c-0.023,0.104-0.044,0.204-0.072,0.309c-0.03,0.112-0.072,0.228-0.11,0.342
		c-0.035,0.103-0.067,0.206-0.108,0.31c-0.048,0.116-0.107,0.231-0.164,0.347c-0.049,0.102-0.096,0.205-0.152,0.306
		c-0.066,0.116-0.149,0.229-0.226,0.344c-0.065,0.098-0.124,0.195-0.199,0.291c-0.09,0.116-0.199,0.229-0.302,0.342
		c-0.082,0.088-0.155,0.178-0.246,0.267c-0.118,0.115-0.261,0.222-0.396,0.333c-0.096,0.077-0.182,0.157-0.284,0.231
		c-0.166,0.119-0.358,0.225-0.545,0.335c-0.098,0.055-0.183,0.119-0.286,0.172c-0.305,0.158-0.633,0.304-0.994,0.435
		c-0.006,0.002-3.256,1.211-3.663,3.055c-0.065,0.287-0.101,0.552-0.122,0.804c-0.008,0.081-0.006,0.154-0.008,0.231
		c-0.006,0.164-0.009,0.324,0.004,0.475c0.006,0.08,0.017,0.156,0.027,0.233c0.019,0.133,0.043,0.262,0.076,0.383
		c0.018,0.068,0.035,0.137,0.059,0.202c0.041,0.119,0.088,0.23,0.142,0.335c0.027,0.052,0.05,0.106,0.077,0.155
		c0.075,0.126,0.155,0.243,0.246,0.349c0.016,0.021,0.026,0.042,0.043,0.062c0.108,0.123,0.226,0.233,0.351,0.335
		c0.036,0.029,0.077,0.054,0.113,0.081c0.092,0.066,0.185,0.131,0.283,0.188c0.049,0.03,0.101,0.057,0.152,0.083
		c0.089,0.047,0.181,0.092,0.273,0.131c0.053,0.023,0.106,0.044,0.162,0.064c0.097,0.038,0.191,0.071,0.289,0.1
		c0.048,0.017,0.099,0.033,0.146,0.045c0.115,0.033,0.23,0.059,0.343,0.082c0.029,0.006,0.058,0.014,0.085,0.02
		c0.144,0.028,0.283,0.05,0.416,0.064c0.027,0.005,0.053,0.008,0.078,0.009c0.105,0.013,0.207,0.023,0.301,0.03
		c0.039,0.003,0.077,0.004,0.113,0.007c0.079,0.002,0.153,0.007,0.221,0.008c0.033,0,0.064,0.002,0.097,0.003
		c0.024,0,0.052,0.001,0.075,0.001c0.029,0,0.044-0.001,0.071-0.001c0.062-0.003,0.12-0.003,0.166-0.004
		c0.02-0.001,0.047-0.002,0.063-0.004c0.039-0.002,0.078-0.003,0.078-0.003c5.724-0.359,9.854-5.331,9.854-11.857
		c0-0.583-0.04-1.156-0.108-1.717c-0.02-0.136-0.037-0.268-0.058-0.403c-0.031-0.2-0.067-0.396-0.107-0.593
		c-0.755-3.944-2.823-7.418-5.732-9.96c-0.081-0.073-0.157-0.148-0.242-0.22c-0.017-0.013-0.029-0.028-0.045-0.041V8.357
		c0,0-0.027-0.02-0.067-0.048c-0.962-0.803-2.182-1.521-3.593-2.112c-0.491-0.224-0.984-0.417-1.445-0.541
		c0.24-0.451,0.379-0.966,0.379-1.513c0-1.771-1.436-3.204-3.205-3.204c-1.771,0-3.206,1.434-3.206,3.204
		c0,0.153,0.023,0.3,0.045,0.447c-0.845-0.032-1.659-0.015-2.432,0.055c-3.741,0.167-7.058,1.957-9.245,4.706
		c-0.563-0.909-1.568-1.516-2.718-1.516c-1.772,0-3.205,1.435-3.205,3.204C124.572,12.809,126.005,14.247,127.777,14.247z
		 M143.457,3.787c0.002-0.012,0.004-0.025,0.006-0.037c0.021-0.119,0.066-0.229,0.108-0.341c0.289-0.689,0.968-1.175,1.762-1.175
		c1.053,0,1.911,0.857,1.911,1.91c0,0.318-0.077,0.623-0.226,0.902l-0.127,0.238c-0.783-0.202-1.603-0.368-2.448-0.489
		c-0.316-0.045-0.626-0.076-0.934-0.107c-0.022-0.08-0.046-0.158-0.058-0.239c-0.01-0.06-0.014-0.115-0.018-0.17
		c-0.005-0.065-0.009-0.128-0.007-0.192C143.43,3.983,143.438,3.884,143.457,3.787z M141.606,15.568c0.012,0,0.021,0.005,0.03,0.006
		c0.02,0.014,0.038,0.023,0.055,0.037c0.299,0.197,0.655,0.313,1.038,0.313c1.045,0,1.894-0.849,1.894-1.895
		c0,0-0.005-0.032,0-0.064c-0.001-0.009-0.005-0.015-0.005-0.024c0-0.064,0.052-0.114,0.115-0.114c0.025,0,0.075,0.037,0.109,0.099
		c0.138,0.265,0.218,0.561,0.218,0.881c0,1.043-0.847,1.893-1.894,1.893c-0.69,0-1.286-0.371-1.618-0.923
		c-0.037-0.056-0.049-0.082-0.049-0.124C141.5,15.653,141.546,15.568,141.606,15.568z M136.391,24.405
		c0.178-0.163,0.455-0.153,0.616,0.023c0.459,0.495,1.309,0.605,2.065,0.272c0.898-0.395,1.381-1.272,1.127-1.999
		c-0.969-0.141-2.39-0.719-2.616-1.177c-0.351-0.709-0.064-1.567,0.645-1.918c0.392-0.196,1.56-0.774,1.953-0.97
		c0.709-0.351,1.567-0.061,1.919,0.65c0.276,0.56-0.385,2.639-0.969,3.237c0.426,0.538,1.311,0.697,2.122,0.34
		c0.752-0.333,1.243-1.027,1.195-1.694c-0.018-0.238,0.162-0.45,0.406-0.467c0.238-0.017,0.447,0.165,0.466,0.405
		c0.074,1.045-0.614,2.071-1.717,2.556c-0.875,0.385-1.816,0.333-2.521-0.062c-0.184,0.785-0.781,1.516-1.658,1.901
		c-1.11,0.489-2.337,0.294-3.055-0.477C136.204,24.846,136.215,24.569,136.391,24.405z M132.063,19.393
		c0.014,0,0.022,0.005,0.033,0.006c0.017,0.013,0.038,0.022,0.054,0.037c0.298,0.196,0.654,0.311,1.037,0.311
		c1.047,0,1.895-0.845,1.895-1.891c0,0-0.006-0.034-0.003-0.068c-0.002-0.005-0.003-0.013-0.003-0.021
		c0-0.063,0.051-0.113,0.114-0.113c0.024,0,0.076,0.036,0.11,0.099c0.138,0.262,0.218,0.562,0.218,0.88
		c0,1.044-0.848,1.894-1.896,1.894c-0.689,0-1.285-0.372-1.615-0.925c-0.036-0.056-0.051-0.082-0.051-0.123
		C131.957,19.478,132.003,19.393,132.063,19.393z M128.27,9.394c0.215,0,0.415,0.043,0.608,0.103c0.2,0.145,0.383,0.317,0.517,0.536
		l0.31,0.497c-0.449,0.739-0.827,1.523-1.129,2.346l-0.59,0.063c-0.068,0.006-0.14,0.013-0.208,0.013
		c-0.309,0-0.598-0.081-0.855-0.211c-0.395-0.354-0.646-0.855-0.646-1.417C126.275,10.258,127.166,9.394,128.27,9.394z"/>
</g>
</svg>
